<svg xmlns="http://www.w3.org/2000/svg" viewBox="0 0 1024 1024" width="1024" height="1024">
  <defs>
    <linearGradient id="bg" x1="0%" y1="0%" x2="100%" y2="100%">
      <stop offset="0%" stop-color="#1E3A8A"/>
      <stop offset="100%" stop-color="#0EA5E9"/>
    </linearGradient>
    <radialGradient id="gloss" cx="28%" cy="18%" r="58%">
      <stop offset="0%" stop-color="white" stop-opacity="0.13"/>
      <stop offset="100%" stop-color="white" stop-opacity="0"/>
    </radialGradient>
    <filter id="shadow" x="-20%" y="-20%" width="140%" height="140%">
      <feDropShadow dx="0" dy="20" stdDeviation="28" flood-color="#0C1A4F" flood-opacity="0.40"/>
    </filter>
    <clipPath id="clip">
      <rect width="1024" height="1024" rx="225" ry="225"/>
    </clipPath>
  </defs>

  <g clip-path="url(#clip)">
    <rect width="1024" height="1024" fill="url(#bg)"/>
    <rect width="1024" height="1024" fill="url(#gloss)"/>

    <!-- Document: x=192, y=72, w=640, h=880 — slightly smaller than last, content fills page -->
    <g transform="rotate(-4, 512, 500)" filter="url(#shadow)">

      <rect x="192" y="72" width="640" height="880" rx="28" fill="white"/>

      <!-- Header tint -->
      <rect x="192" y="72" width="640" height="150" rx="28" fill="#EFF6FF"/>
      <rect x="192" y="178" width="640" height="44" fill="#EFF6FF"/>

      <!-- Profile avatar -->
      <circle cx="258" cy="147" r="48" fill="#BFDBFE"/>
      <circle cx="258" cy="134" r="16" fill="#1E40AF" opacity="0.44"/>
      <ellipse cx="258" cy="163" rx="25" ry="14" fill="#1E40AF" opacity="0.44"/>

      <!-- Name / title / contact -->
      <rect x="324" y="120" width="252" height="17" rx="8.5" fill="#1E40AF" opacity="0.26"/>
      <rect x="324" y="147" width="186" height="12" rx="6"   fill="#1E40AF" opacity="0.16"/>
      <rect x="324" y="169" width="148" height="10" rx="5"   fill="#1E40AF" opacity="0.11"/>

      <!-- ── SECTION 1 ── y=242 to 392 -->
      <rect x="224" y="242" width="576" height="2" rx="1" fill="#E2E8F0"/>
      <rect x="224" y="260" width="108" height="13" rx="6.5" fill="#1D4ED8" opacity="0.32"/>
      <rect x="224" y="286" width="554" height="11" rx="5.5" fill="#CBD5E1"/>
      <rect x="224" y="310" width="472" height="11" rx="5.5" fill="#CBD5E1"/>
      <rect x="224" y="334" width="518" height="11" rx="5.5" fill="#CBD5E1"/>
      <rect x="224" y="358" width="344" height="11" rx="5.5" fill="#CBD5E1"/>

      <!-- ── SECTION 2 ── y=392 to 542 -->
      <rect x="224" y="392" width="576" height="2" rx="1" fill="#E2E8F0"/>
      <rect x="224" y="410" width="126" height="13" rx="6.5" fill="#1D4ED8" opacity="0.32"/>
      <rect x="224" y="436" width="536" height="11" rx="5.5" fill="#CBD5E1"/>
      <rect x="224" y="460" width="406" height="11" rx="5.5" fill="#CBD5E1"/>
      <rect x="224" y="484" width="488" height="11" rx="5.5" fill="#CBD5E1"/>
      <rect x="224" y="508" width="300" height="11" rx="5.5" fill="#CBD5E1"/>

      <!-- ── SECTION 3 ── y=542 to 692 -->
      <rect x="224" y="542" width="576" height="2" rx="1" fill="#E2E8F0"/>
      <rect x="224" y="560" width="90" height="13" rx="6.5" fill="#1D4ED8" opacity="0.32"/>
      <rect x="224" y="586" width="562" height="11" rx="5.5" fill="#CBD5E1"/>
      <rect x="224" y="610" width="428" height="11" rx="5.5" fill="#CBD5E1"/>
      <rect x="224" y="634" width="500" height="11" rx="5.5" fill="#CBD5E1"/>
      <rect x="224" y="658" width="316" height="11" rx="5.5" fill="#CBD5E1"/>

      <!-- ── SECTION 4 ── y=692 to 842 -->
      <rect x="224" y="692" width="576" height="2" rx="1" fill="#E2E8F0"/>
      <rect x="224" y="710" width="100" height="13" rx="6.5" fill="#1D4ED8" opacity="0.32"/>
      <rect x="224" y="736" width="544" height="11" rx="5.5" fill="#CBD5E1"/>
      <rect x="224" y="760" width="386" height="11" rx="5.5" fill="#CBD5E1"/>
      <rect x="224" y="784" width="458" height="11" rx="5.5" fill="#CBD5E1"/>
      <rect x="224" y="808" width="290" height="11" rx="5.5" fill="#CBD5E1"/>

      <!-- ── SKILL PILLS ── y=842 to ~890 -->
      <rect x="224" y="842" width="576" height="2" rx="1" fill="#E2E8F0"/>
      <rect x="224" y="862" width="96"  height="26" rx="13" fill="#DBEAFE"/>
      <rect x="330" y="862" width="82"  height="26" rx="13" fill="#DBEAFE"/>
      <rect x="422" y="862" width="100" height="26" rx="13" fill="#DBEAFE"/>
      <rect x="532" y="862" width="80"  height="26" rx="13" fill="#DBEAFE"/>
      <rect x="244" y="870" width="58" height="8" rx="4" fill="#1E40AF" opacity="0.24"/>
      <rect x="348" y="870" width="48" height="8" rx="4" fill="#1E40AF" opacity="0.24"/>
      <rect x="442" y="870" width="62" height="8" rx="4" fill="#1E40AF" opacity="0.24"/>
      <rect x="550" y="870" width="44" height="8" rx="4" fill="#1E40AF" opacity="0.24"/>

    </g>
  </g>
</svg>
